<svg height="511pt" viewBox="-91 0 511 511.99945" width="511pt" xmlns="http://www.w3.org/2000/svg"><path d="m319.40625 464.519531c-2.738281 5.585938-7.734375 9.324219-13.359375 10.667969-.25.066406-.515625.121094-.773437.171875 2.703124 5.410156 2.964843 11.964844.097656 17.8125-4.875 9.957031-16.90625 14.070313-26.863282 9.195313-8.679687-4.253907-12.921874-13.941407-10.632812-22.960938l-223.941406-109.726562c-5.726563 7.339843-15.980469 9.925781-24.660156 5.671874-9.957032-4.875-14.070313-16.90625-9.195313-26.863281 2.824219-5.757812 8.046875-9.554687 13.875-10.773437.085937-.035156.171875-.046875.257813-.066406-2.703126-5.410157-2.964844-11.964844-.097657-17.8125 4.875-9.957032 16.90625-14.066407 26.863281-9.191407 8.679688 4.253907 12.921876 13.9375 10.632813 22.957031l223.941406 109.730469c5.726563-7.34375 15.980469-9.925781 24.660157-5.671875 9.957031 4.875 14.070312 16.902344 9.195312 26.859375zm0 0" fill="#d2d2d7"/><path d="m310.210938 375.347656c-8.679688 4.253906-18.933594 1.671875-24.660157-5.667968l-223.9375 109.726562c2.289063 9.019531-1.953125 18.707031-10.636719 22.960938-9.957031 4.875-21.984374.761718-26.859374-9.195313-2.726563-5.550781-2.628907-11.738281-.296876-16.96875.121094-.285156.25-.570313.394532-.84375-5.933594-1.175781-11.265625-4.992187-14.136719-10.839844-4.875-9.957031-.761719-21.984375 9.195313-26.859375 8.679687-4.253906 18.933593-1.671875 24.660156 5.671875l223.941406-109.730469c-2.289062-9.019531 1.953125-18.703124 10.632812-22.957031 9.957032-4.875 21.988282-.765625 26.863282 9.191407 2.867187 5.847656 2.605468 12.402343-.097656 17.8125.105468.019531.226562.042968.335937.074218 5.800781 1.246094 10.984375 5.03125 13.796875 10.765625 4.875 9.957031.761719 21.984375-9.195312 26.859375zm0 0" fill="#ebebf0"/><path d="m320.542969 142.316406c-.90625-62.007812-49.957031-114.191406-116-129.921875-13.316407-3.167969-27.316407-4.859375-41.761719-4.847656-86.027344.058594-154.925781 60.488281-153.839844 135 .585938 39.929687 21.242188 82.414063 53.550782 113.253906 4.578124 4.375 7.203124 10.398438 7.292968 16.738281l.28125 19.078126c.179688 12.292968 11.816406 22.230468 26.007813 22.21875l19.164062-.011719c4.875 0 8.789063-3.429688 8.730469-7.664063-.113281-7.289062-.203125-13.859375-.324219-22.015625-.03125-2.222656 2.042969-4.054687 4.617188-4.054687h4.699219l14.714843-.007813c2.5625-.011719 4.695313 1.820313 4.726563 4.042969.050781 3.539062.25 17.117188.339844 23.222656.011718.464844.070312.917969.191406 1.347656.484375 1.882813 1.902344 3.460938 3.8125 4.335938 1.054687.484375 2.261718.765625 3.539062.765625l13.863282-.011719c4.121093-.007812 7.402343-2.886718 7.351562-6.464844-.03125-2.003906-.25-17.3125-.332031-23.214843-.039063-2.234375 2.042969-4.054688 4.617187-4.054688l19.453125-.019531c2.5625 0 4.695313 1.820312 4.726563 4.042969.121094 8.027343.21875 14.695312.320312 22.027343.0625 4.222657 4.074219 7.652344 8.953125 7.644532l19.121094-.011719c14.191406-.007813 25.585937-10.007813 25.40625-22.296875l-.273437-18.808594c-.097657-6.449218 2.457031-12.644531 7.042968-17.179687 31.257813-30.867188 50.589844-73.304688 50.007813-113.132813zm0 0" fill="#d2d2d7"/><path d="m270.535156 255.449219c-4.585937 4.535156-7.140625 10.730469-7.042968 17.179687l.273437 18.808594c.179687 12.289062-11.214844 22.289062-25.40625 22.296875l-19.121094.011719c-4.878906.007812-8.890625-3.421875-8.953125-7.644532-.101562-7.332031-.199218-14-.320312-22.027343-.03125-2.222657-2.164063-4.042969-4.726563-4.042969l-19.453125.019531c-2.574218 0-4.65625 1.820313-4.617187 4.054688.082031 5.902343.300781 21.210937.332031 23.214843.050781 3.578126-3.230469 6.457032-7.351562 6.464844l-13.863282.011719c-1.277344 0-2.484375-.28125-3.539062-.765625-1.285156-1.417969-2.5625-2.867188-3.8125-4.335938-7.460938-8.738281-14.152344-18.316406-19.972656-28.605468-16.164063-28.605469-25.550782-62.671875-25.550782-99.242188 0-75.496094 39.992188-140.339844 97.132813-168.453125 66.042969 15.730469 115.09375 67.914063 116 129.921875.582031 39.828125-18.75 82.265625-50.007813 113.132813zm0 0" fill="#ebebf0"/><g fill="#4b5055"><path d="m137.023438 147.121094c-8.609376 21.808594-30.488282 34.984375-48.804688 29.421875-17.097656-5.21875-25.125-24.855469-19.1875-45.152344.429688-1.488281.945312-2.984375 1.539062-4.484375 8.609376-21.847656 30.445313-35.023438 48.800782-29.429688 9.433594 2.867188 16.113281 10.136719 19.191406 19.492188 2.925781 8.839844 2.644531 19.542969-1.539062 30.152344zm0 0"/><path d="m165.917969 223.179688c-8.914063.007812-16.242188-6.871094-16.363281-15.367188-.125-8.492188 6.613281-42.132812 15.527343-42.140625 8.914063-.007813 16.628907 33.621094 16.753907 42.117187.125 8.492188-7.003907 15.382813-15.917969 15.390626zm0 0"/><path d="m242.300781 176.433594c-18.195312 5.589844-40.414062-7.554688-49.65625-29.351563-4.699219-11.09375-5.128906-22.289062-2.042969-31.351562 2.988282-8.78125 9.292969-15.558594 18.246094-18.316407 18.195313-5.628906 40.414063 7.515626 49.65625 29.351563.804688 1.890625 1.480469 3.78125 2.042969 5.671875 5.863281 19.855469-1.640625 38.855469-18.246094 43.996094zm0 0"/></g><path d="m138.5625 116.96875c-.433594 1.5-.945312 3.007812-1.539062 4.507812-8.609376 21.804688-30.488282 34.980469-48.804688 29.417969-9.433594-2.875-16.109375-10.148437-19.1875-19.503906.429688-1.488281.945312-2.984375 1.539062-4.484375 8.609376-21.847656 30.445313-35.023438 48.800782-29.429688 9.433594 2.867188 16.113281 10.136719 19.191406 19.492188zm0 0" fill="#5a5f64"/><path d="m260.546875 132.4375c-2.996094 8.78125-9.292969 15.570312-18.246094 18.347656-18.195312 5.589844-40.414062-7.554687-49.65625-29.351562-.804687-1.898438-1.488281-3.800782-2.042969-5.703125 2.988282-8.78125 9.292969-15.558594 18.246094-18.316407 18.195313-5.628906 40.414063 7.515626 49.65625 29.351563.804688 1.890625 1.480469 3.78125 2.042969 5.671875zm0 0" fill="#5a5f64"/><path d="m57.28125 261.257812c3.089844 2.953126 4.898438 7.105469 4.960938 11.386719l.277343 19.082031c.238281 16.351563 15.289063 29.65625 33.558594 29.65625l19.160156-.015624c8.894531-.003907 16.382813-6.742188 16.269531-15.316407l-.269531-18.417969 13.671875-.011718.289063 19.832031c.113281 7.65625 6.882812 13.882813 15.097656 13.882813l13.851563-.011719c8.546874-.007813 15.09375-6.726563 14.898437-14.113281l-.289063-19.621094 13.714844-.007813.273438 18.628907c.121094 8.316406 7.523437 15.082031 16.503906 15.082031l19.113281-.015625c18.167969-.011719 32.945313-13.269532 32.945313-29.550782-.054688-3.929687.144531 10.085938-.277344-19.441406 0-4.273437 1.75-8.453125 4.800781-11.464844 31.34375-30.949218 50.859375-72.949218 52.195313-112.347656.140625-4.164062-3.121094-7.652344-7.28125-7.796875-4.1875-.148437-7.65625 3.121094-7.796875 7.285157-1.210938 35.640624-19.046875 73.816406-47.714844 102.125-5.902344 5.828124-9.289063 13.917968-9.289063 22.199218.058594 3.941406-.144531-10.105468.277344 19.441406 0 7.96875-8.015625 14.457032-17.867187 14.464844l-19.113281.011719c-.773438 0-1.238282-.292969-1.414063-.453125l-.316406-21.78125c-.09375-6.328125-5.597657-11.476562-12.28125-11.476562l-19.453125.011718c-6.832032.003906-12.261719 5.351563-12.15625 11.714844l.324218 22.019531c-8.023437.007813-5.597656.003907-13.671874.011719l-.324219-22.238281c-.09375-6.328125-5.601563-11.476563-12.28125-11.476563l-19.414063.011719c-6.804687.003906-12.261718 5.332031-12.152344 11.707031l.316407 21.703125c-.179688.132813-.570313.324219-1.191407.324219l-19.152343.015625c-10.0625 0-18.347657-6.632813-18.46875-14.785156l-.277344-19.082031c-.117187-8.308594-3.628906-16.355469-9.628906-22.082032-29.71875-28.371094-51.226563-69.023437-51.226563-109.53125 0-69.269531 65.636719-125.667968 146.308594-125.730468h.132812c71.933594 0 133.945313 44.082031 147.449219 104.820312.90625 4.066406 4.9375 6.628906 9 5.722656 4.066407-.902344 6.632813-4.933594 5.726563-9-25.457032-114.488281-185.578125-154.328125-276.1875-75.769531-30.308594 26.273437-48.074219 62.1875-47.503906 101.800781.601562 41.433594 21.492187 85.769532 55.882812 118.597656zm0 0"/><path d="m284.050781 434.191406-56.503906-27.691406 56.503906-27.6875c8.269531 6.644531 19.660157 8.117188 29.480469 3.308594 20.277344-9.925782 20.570312-38.488282 1.058594-49.054688 2.699218-16.4375-9.855469-32.015625-27.257813-32.015625-14.816406 0-27.621093 11.882813-27.621093 27.632813 0 .167968.011718.339844.011718.511718l-28.554687 13.992188c-3.734375 1.828125-5.28125 6.34375-3.453125 10.085938 1.832031 3.742187 6.359375 5.292968 10.089844 3.460937l33.382812-16.363281c3.207031-1.570313 4.878906-5.171875 3.992188-8.632813-2.019532-8.003906 4.070312-15.597656 12.152343-15.597656 9.25 0 15.398438 9.671875 11.195313 18.132813-2.019532 4.019531-.074219 9.582031 5.5 10.824218 5.984375 1.292969 9.886718 6.542969 9.886718 12.210938 0 11.957031-15.121093 17.078125-22.410156 7.734375-2.203125-2.816407-6.0625-3.710938-9.273437-2.132813-333.265625 163.308594 57.949219-28.394531-223.933594 109.722656-3.207031 1.570313-4.878906 5.171876-3.992187 8.628907 1.4375 5.695312-1.230469 11.683593-6.648438 14.335937-1.730469.84375-3.582031 1.277344-5.5 1.277344-9.449219 0-15.300781-9.925781-11.246094-18.035156 2.316406-4.441406-.300781-9.894532-5.230468-10.875-6.144532-1.222656-10.109376-6.539063-10.109376-12.269532 0-11.941406 15.121094-17.070312 22.410157-7.722656 2.203125 2.816406 6.066406 3.699219 9.273437 2.128906 22.542969-11.042968 45.113282-22.097656 163.464844-80.089843 3.730469-1.832031 5.28125-6.359375 3.449219-10.097657-1.832031-3.742187-6.347657-5.292968-10.089844-3.453124l-39.335937 19.273437-52.019532-25.488281c-3.742187-1.832032-8.257812-.292969-10.089844 3.449218-1.828124 3.742188-.289062 8.269532 3.449219 10.097657l41.511719 20.339843-28.503906 13.96875-71.835938-35.191406c-3.207031-1.578125-7.070312-.683594-9.273437 2.132813-3.519531 4.511719-9.90625 6.222656-15.390625 3.53125-10.679688-5.230469-8.707032-21.042969 2.910156-23.476563 5.484375-1.175781 7.546875-6.648437 5.460938-10.824218-1.714844-3.449219-1.855469-7.472657-.070313-11.125 6.597656-13.445313 27.171875-5.894532 23.402344 8.601562-.875 3.449219.796875 7.050781 3.996093 8.621094l20.699219 10.148437c3.742188 1.828125 8.265625.28125 10.097657-3.460937 1.832031-3.742188.28125-8.257813-3.460938-10.089844l-15.859375-7.773438v-.511718c0-29.253906-39.601563-38.367188-52.425781-12.171875-2.53125 5.1875-3.378906 10.855469-2.441406 16.554687-19.320313 10.421875-19.386719 39.058594 1.054687 49.054688 9.800781 4.796875 21.199219 3.347656 29.480469-3.308594l56.507812 27.6875-56.507812 27.691406c-8.167969-6.546875-19.574219-8.15625-29.480469-3.308594-20.332031 9.964844-20.511719 38.542969-1.066406 49.054688-.90625 5.519531-.132813 11.292969 2.453125 16.554688 12.78125 26.140624 52.433594 17.054687 52.433594-12.171876 0-.171874-.007813-.339843-.007813-.503906l94.976563-46.535156 94.980468 46.535156c0 11.636719 6.203125 20.789063 15.46875 25.328125 20.011719 9.796875 43.023438-7.007812 39.398438-29.21875 4.976562-2.695312 9.039062-6.878906 11.585937-12.089843 1.878907-3.8125 2.824219-7.894532 2.824219-12.128907 0-23.171875-26.785156-36.074219-44.949219-21.515625zm19.683594 33.785156c-4.816406.992188-7.429687 6.300782-5.207031 10.761719 5.324218 10.71875-5.902344 22.128907-16.699219 16.859375-5.449219-2.667968-8.082031-8.695312-6.648437-14.324218.886718-3.460938-.785157-7.070313-3.992188-8.640626l-89.304688-43.753906 28.515626-13.96875 71.832031 35.191406c3.210937 1.570313 7.070312.6875 9.273437-2.128906 7.273438-9.328125 22.410156-4.25 22.410156 7.734375 0 5.414063-3.574218 10.859375-10.179687 12.269531zm0 0"/><path d="m148.042969 129.398438c0-23.78125-16.210938-40.75-37.4375-40.75-19.46875 0-38.820313 14.59375-47.050781 35.484374-12.605469 31.925782 5.554687 61.230469 33.371093 61.230469 27.214844 0 51.117188-27.21875 51.117188-55.964843zm-57.621094 39.929687c-14.988281-4.574219-19.355469-23.140625-12.832031-39.660156 6.636718-16.839844 24.203125-29.664063 39.589844-24.96875 9.734374 2.949219 15.777343 12.414062 15.777343 24.699219 0 24.171874-23.339843 45.761718-42.535156 39.929687zm0 0"/><path d="m165.917969 230.722656h.007812c12.929688-.007812 23.453125-10.199218 23.453125-22.71875-.015625-.109375-.59375-11.757812-5.445312-26.777344-3.203125-9.914062-8.644532-23.097656-18.859375-23.097656-10.285157.007813-15.371094 13.148438-18.304688 23.027344-4.671875 15.753906-4.746093 26.652344-4.757812 26.765625.179687 12.574219 10.90625 22.800781 23.90625 22.800781zm-.761719-55.644531c4.117188 7.015625 9.035156 25.808594 9.136719 32.8125v.113281c0 4.207032-3.757813 7.628906-8.378907 7.632813-4.800781 0-8.753906-3.558594-8.820312-7.921875v-.136719c0-7.328125 4.195312-25.519531 8.0625-32.5zm0 0"/><path d="m244.511719 183.640625c.105469-.078125 25.546875-6.546875 25.546875-37.925781 0-29.394532-25.261719-57.148438-52.4375-57.148438-28.621094 0-45.152344 30.214844-31.921875 61.460938 10.160156 23.953125 35.789062 40.6875 58.8125 33.613281zm-26.890625-79.984375c13.269531 0 27.542968 10.953125 33.9375 26.050781 7.953125 18.761719 1.355468 35.539063-11.484375 39.515625-15.589844 4.785156-33.480469-8.570312-40.484375-25.082031-8.460938-19.988281-.652344-40.484375 18.03125-40.484375zm0 0"/></svg>