<?xml version="1.0" encoding="utf-8"?>
<!-- Generator: Adobe Illustrator 22.1.0, SVG Export Plug-In . SVG Version: 6.00 Build 0)  -->
<svg version="1.1" id="Livello_1" xmlns="http://www.w3.org/2000/svg" xmlns:xlink="http://www.w3.org/1999/xlink" x="0px" y="0px"
	 viewBox="0 0 512 512" style="enable-background:new 0 0 512 512;" xml:space="preserve">
<style type="text/css">
	.st0{fill:#F2A47A;stroke:#000000;stroke-width:19;stroke-miterlimit:10;}
</style>
<circle class="st0" cx="256" cy="407" r="20"/>
<path class="st0" d="M298,295.5c39.5-16.9,65-55.5,65-98.5c0-0.3,0-0.7,0-1c-0.5-58.5-48.3-106-107-106c-59,0-107,48-107,107
	c0,11,9,20,20,20s20-9,20-20c0-36.9,30.1-67,67-67s67,30.1,67,67c0,0.3,0,0.5,0,0.8c-0.3,26.6-16.2,50.4-40.7,60.9
	C254.6,270.5,236,299.2,236,330c0,11,9,20,20,20s20-9,20-20C276,315,284.8,301.1,298,295.5z"/>
</svg>
