<?xml version="1.0" encoding="utf-8"?>
<!-- Generator: Adobe Illustrator 22.1.0, SVG Export Plug-In . SVG Version: 6.00 Build 0)  -->
<svg version="1.1" id="Livello_1" xmlns="http://www.w3.org/2000/svg" xmlns:xlink="http://www.w3.org/1999/xlink" x="0px" y="0px"
	 viewBox="0 0 512 512" style="enable-background:new 0 0 512 512;" xml:space="preserve">
<style type="text/css">
	.st0{fill:#FFD200;}
	.st1{fill:#FFFFFF;}
</style>
<path class="st0" d="M394.6,501.3H117.4c-22.6,0-40.9-18.3-40.9-40.9V248.1c0-22.6,18.3-40.9,40.9-40.9h277.3
	c22.6,0,40.9,18.3,40.9,40.9v212.3C435.5,483,417.2,501.3,394.6,501.3z"/>
<path d="M406,197v-47C406,67.3,338.7,0,256,0S106,67.3,106,150v47c-22.8,4.6-40,24.8-40,49v56.8c0,5.5,4.5,10,10,10s10-4.5,10-10
	V246c0-16.5,13.5-30,30-30h280c16.5,0,30,13.5,30,30v216c0,13-8.4,24.2-20,28.3V430c0-5.5-4.5-10-10-10s-10,4.5-10,10v62H116
	c-16.5,0-30-13.5-30-30v-79c0-5.5-4.5-10-10-10s-10,4.5-10,10v79c0,27.6,22.4,50,50,50h280c27.6,0,50-22.4,50-50V246
	C446,221.9,428.8,201.7,406,197z M180,196v-46c0-41.9,34.1-76,76-76s76,34.1,76,76v46H180z M352,196v-46c0-52.9-43.1-96-96-96
	s-96,43.1-96,96v46h-34v-46c0-71.7,58.3-130,130-130s130,58.3,130,130v46H352z"/>
<path class="st0" d="M352,196v-46c0-52.9-43.1-96-96-96s-96,43.1-96,96v46h-34v-46c0-71.7,58.3-130,130-130s130,58.3,130,130v46H352
	z"/>
<path d="M76,352.5c2.6,0,5.2-1.1,7.1-2.9c1.9-1.9,2.9-4.4,2.9-7.1c0-2.6-1.1-5.2-2.9-7.1c-1.9-1.9-4.4-2.9-7.1-2.9s-5.2,1.1-7.1,2.9
	c-1.9,1.9-2.9,4.4-2.9,7.1c0,2.6,1.1,5.2,2.9,7.1C70.8,351.4,73.4,352.5,76,352.5z"/>
<path d="M256,458c16.5,0,30-13.5,30-30v-53.1c15-9.9,24.1-26.7,24.1-45c0-29.8-24.2-54-54-54c-29.8,0-54,24.2-54,54
	c0,18.2,9,34.8,23.9,44.8V428C226,444.5,239.5,458,256,458z M222.1,329.9c0-18.8,15.2-34,34-34c18.7,0,34,15.2,34,34
	c0,12.9-7.1,24.5-18.7,30.3c-3.4,1.7-5.5,5.1-5.5,8.9V428c0,5.5-4.5,10-10,10s-10-4.5-10-10v-59c0-3.7-2.1-7.2-5.4-8.9
	C229.2,354.3,222.1,342.7,222.1,329.9z"/>
<path class="st1" d="M222,329.9c0-18.8,15.2-34,34-34c18.7,0,34,15.2,34,34c0,12.9-7.1,24.5-18.7,30.3c-3.4,1.7-5.5,5.1-5.5,8.9V428
	c0,5.5-4.5,10-10,10s-10-4.5-10-10v-59c0-3.7-2.1-7.2-5.4-8.9C229.1,354.3,222,342.7,222,329.9z"/>
<path d="M396,399c2.6,0,5.2-1.1,7.1-2.9s2.9-4.4,2.9-7.1s-1.1-5.2-2.9-7.1s-4.4-2.9-7.1-2.9c-2.6,0-5.2,1.1-7.1,2.9
	s-2.9,4.4-2.9,7.1s1.1,5.2,2.9,7.1S393.4,399,396,399z"/>
</svg>
