<?xml version="1.0" encoding="utf-8"?>
<!-- Generator: Adobe Illustrator 22.1.0, SVG Export Plug-In . SVG Version: 6.00 Build 0)  -->
<svg version="1.1" id="Livello_1" xmlns="http://www.w3.org/2000/svg" xmlns:xlink="http://www.w3.org/1999/xlink" x="0px" y="0px"
	 viewBox="0 0 512 512" style="enable-background:new 0 0 512 512;" xml:space="preserve">
<style type="text/css">
	.st0{fill:#ADC1FF;}
	.st1{fill:#7288FF;}
	.st2{fill:#FFFFFF;}
</style>
<path class="st0" d="M436,95.1v286.2c0,15.4-9.1,29.3-23.2,35.5l-141.2,61.9c-9.9,4.4-21.2,4.4-31.2,0L99.2,416.8
	C85.1,410.6,76,396.7,76,381.3V95.1H436z"/>
<path class="st1" d="M256,231C152.7,231,69,147.3,69,44V30h374v14C443,147.3,359.3,231,256,231z"/>
<path class="st2" d="M305,130.5c0,27.1-21.9,49-49,49s-49-21.9-49-49s21.9-49,49-49S305,103.4,305,130.5z"/>
<path d="M236,422.2l-9.2-4c-5.1-2.2-11,0.1-13.2,5.1s0.1,11,5.1,13.2l9.2,4c1.3,0.6,2.7,0.8,4,0.8c3.8,0,7.5-2.2,9.2-6
	C243.4,430.3,241.1,424.4,236,422.2z"/>
<path d="M278.3,421.2l-9.2,4c-5.1,2.2-7.4,8.1-5.1,13.2c1.6,3.8,5.3,6,9.2,6c1.3,0,2.7-0.3,4-0.8l9.2-4c5.1-2.2,7.4-8.1,5.1-13.2
	C289.3,421.3,283.4,419,278.3,421.2z"/>
<path d="M328.7,399.1l-9.2,4c-5.1,2.2-7.4,8.1-5.1,13.2c1.6,3.8,5.3,6,9.2,6c1.3,0,2.7-0.3,4-0.8l9.2-4c5.1-2.2,7.4-8.1,5.1-13.2
	C339.7,399.2,333.8,396.9,328.7,399.1z"/>
<path d="M185.6,400.1l-9.2-4c-5.1-2.2-11,0.1-13.2,5.1c-2.2,5.1,0.1,11,5.1,13.2l9.2,4c1.3,0.6,2.7,0.8,4,0.8c3.8,0,7.5-2.2,9.2-6
	C193,408.2,190.7,402.3,185.6,400.1z"/>
<path d="M116,242.1c5.5,0,10-4.5,10-10v-10c0-5.5-4.5-10-10-10s-10,4.5-10,10v10C106,237.6,110.5,242.1,116,242.1z"/>
<path d="M116,297.1c5.5,0,10-4.5,10-10v-10c0-5.5-4.5-10-10-10s-10,4.5-10,10v10C106,292.6,110.5,297.1,116,297.1z"/>
<path d="M379.1,377l-9.2,4c-5.1,2.2-7.4,8.1-5.1,13.2c1.6,3.8,5.3,6,9.2,6c1.3,0,2.7-0.3,4-0.8l9.2-4c5.1-2.2,7.4-8.1,5.1-13.2
	C390,377.1,384.1,374.8,379.1,377z"/>
<path d="M126,342.1v-10c0-5.5-4.5-10-10-10s-10,4.5-10,10v10c0,5.5,4.5,10,10,10S126,347.6,126,342.1z"/>
<path d="M135.3,378l-9.2-4c-5.1-2.2-11,0.1-13.2,5.1s0.1,11,5.1,13.2l9.2,4c1.3,0.6,2.7,0.8,4,0.8c3.9,0,7.5-2.2,9.2-6
	C142.6,386.1,140.3,380.2,135.3,378z"/>
<path d="M386,229.6v10c0,5.5,4.5,10,10,10s10-4.5,10-10v-10c0-5.5-4.5-10-10-10S386,224.1,386,229.6z"/>
<path d="M396,329.6c-5.5,0-10,4.5-10,10v10c0,5.5,4.5,10,10,10s10-4.5,10-10v-10C406,334.1,401.5,329.6,396,329.6z"/>
<path d="M396,274.6c-5.5,0-10,4.5-10,10v10c0,5.5,4.5,10,10,10s10-4.5,10-10v-10C406,279.1,401.5,274.6,396,274.6z"/>
<path d="M167,40c2.6,0,5.2-1.1,7.1-2.9c1.9-1.9,2.9-4.4,2.9-7.1s-1.1-5.2-2.9-7.1S169.6,20,167,20s-5.2,1.1-7.1,2.9S157,27.4,157,30
	c0,2.6,1.1,5.2,2.9,7.1S164.4,40,167,40z"/>
<path d="M443,20H202c-5.5,0-10,4.5-10,10s4.5,10,10,10h231v4c0,97.6-79.4,177-177,177S79,141.6,79,44v-4h47c5.5,0,10-4.5,10-10
	s-4.5-10-10-10H69c-5.5,0-10,4.5-10,10v14c0,18,2.4,35.5,7,52.1v285.2c0,19.4,11.5,36.9,29.2,44.7l141.2,61.9
	c6.2,2.7,12.9,4.1,19.6,4.1s13.4-1.4,19.6-4.1L416.8,426c17.7-7.8,29.2-25.3,29.2-44.7V96.1c4.6-16.6,7-34.1,7-52.1V30
	C453,24.5,448.5,20,443,20z M426,381.3c0,11.4-6.8,21.8-17.2,26.4l-141.2,61.9c-7.4,3.2-15.8,3.2-23.1,0l-141.2-61.9
	c-10.5-4.6-17.3-15-17.3-26.4V143.4c34.2,58.3,97.6,97.6,170,97.6s135.8-39.2,170-97.6V381.3z"/>
<path d="M256,125.5c2.6,0,5.2-1.1,7.1-2.9s2.9-4.4,2.9-7.1s-1.1-5.2-2.9-7.1s-4.4-2.9-7.1-2.9s-5.2,1.1-7.1,2.9s-2.9,4.4-2.9,7.1
	s1.1,5.2,2.9,7.1S253.4,125.5,256,125.5z"/>
<path d="M263.1,152.6c1.9-1.9,2.9-4.4,2.9-7.1s-1.1-5.2-2.9-7.1s-4.4-2.9-7.1-2.9s-5.2,1.1-7.1,2.9s-2.9,4.4-2.9,7.1
	s1.1,5.2,2.9,7.1s4.4,2.9,7.1,2.9S261.2,154.4,263.1,152.6z"/>
<path d="M315,130.5c0-32.5-26.5-59-59-59s-59,26.5-59,59s26.5,59,59,59S315,163,315,130.5z M217,130.5c0-21.5,17.5-39,39-39
	s39,17.5,39,39s-17.5,39-39,39S217,152,217,130.5z"/>
</svg>
